<svg width="12" height="12" viewBox="0 0 12 12" fill="none" xmlns="http://www.w3.org/2000/svg">
<path d="M4.38397 1.11417C4.17239 2.01751 4.14362 2.95405 4.29934 3.86868C4.45506 4.78331 4.79214 5.65756 5.29074 6.43999C5.78934 7.22242 6.43939 7.89723 7.20264 8.42472C7.9659 8.95221 8.82694 9.32172 9.73511 9.51151C9.25765 10.0055 8.68579 10.3986 8.0535 10.6674C7.4212 10.9362 6.74135 11.0752 6.0543 11.0761C5.9906 11.0761 5.92599 11.0784 5.86137 11.0761C4.66522 11.034 3.52163 10.5742 2.62927 9.77652C1.73691 8.97887 1.15217 7.89382 0.976639 6.70987C0.801109 5.52592 1.04588 4.31789 1.66843 3.29565C2.29098 2.2734 3.25196 1.50154 4.38443 1.11417H4.38397ZM5.06613 0C5.03904 9.13602e-05 5.01202 0.00256245 4.98536 0.00738473C3.51609 0.26886 2.19549 1.06464 1.27782 2.2415C0.36015 3.41837 -0.089705 4.89312 0.0148659 6.38181C0.119437 7.8705 0.77104 9.26787 1.84422 10.3049C2.9174 11.3419 4.33628 11.9453 5.82768 11.9988C5.90337 12.0015 5.97907 11.9988 6.05384 11.9988C7.02259 11.9994 7.97725 11.7667 8.83709 11.3205C9.69693 10.8742 10.4367 10.2274 10.9937 9.43489C11.0389 9.36658 11.0652 9.28759 11.0701 9.20586C11.075 9.12414 11.0583 9.04256 11.0217 8.96934C10.9851 8.89612 10.9298 8.83384 10.8614 8.78876C10.7931 8.74369 10.7141 8.71741 10.6324 8.71257C9.71031 8.63165 8.81922 8.3398 8.02795 7.85957C7.23669 7.37934 6.56644 6.7236 6.06902 5.94303C5.5716 5.16245 5.26033 4.27796 5.15926 3.3579C5.05819 2.43785 5.17003 1.50687 5.48614 0.636931C5.51303 0.567299 5.52289 0.492248 5.5149 0.418031C5.50692 0.343815 5.48131 0.272581 5.44022 0.210265C5.39912 0.147949 5.34374 0.0963545 5.27867 0.0597799C5.21359 0.0232053 5.14073 0.00270949 5.06613 0V0Z" fill="white"/>
</svg>
