<svg width="20" height="19" viewBox="0 0 20 19" fill="none" xmlns="http://www.w3.org/2000/svg">
<path d="M3.58075 17.9386C3.48325 18.4936 4.03074 18.9273 4.51323 18.6798L10.0006 15.8599L15.4868 18.6798C15.9693 18.9273 16.5168 18.4936 16.4193 17.9399L15.3818 12.0275L19.7842 7.83254C20.1967 7.44004 19.9842 6.72256 19.4317 6.64506L13.3093 5.77507L10.5794 0.366423C10.5274 0.256786 10.4453 0.164156 10.3428 0.0992934C10.2402 0.0344312 10.1214 0 10 0C9.87866 0 9.75981 0.0344312 9.65725 0.0992934C9.5547 0.164156 9.47265 0.256786 9.42065 0.366423L6.6907 5.77632L0.568306 6.64631C0.0170665 6.72381 -0.19668 7.44129 0.214563 7.83379L4.61823 12.0287L3.58075 17.9411V17.9386ZM9.71189 14.4799L5.10447 16.8474L5.97196 11.9012C5.99228 11.7874 5.98433 11.6702 5.9488 11.5602C5.91328 11.4501 5.85126 11.3505 5.76821 11.27L2.13578 7.80754L7.20069 7.08755C7.30556 7.07171 7.40504 7.03069 7.4906 6.96799C7.57615 6.9053 7.64523 6.82279 7.69193 6.72756L9.99813 2.15514L12.3068 6.72756C12.3535 6.82279 12.4226 6.9053 12.5082 6.96799C12.5937 7.03069 12.6932 7.07171 12.7981 7.08755L17.863 7.80629L14.2306 11.2687C14.1473 11.3493 14.0852 11.4492 14.0496 11.5595C14.0141 11.6698 14.0063 11.7872 14.0268 11.9012L14.8943 16.8474L10.2869 14.4799C10.1978 14.434 10.099 14.41 9.99876 14.41C9.89852 14.41 9.79973 14.434 9.71064 14.4799H9.71189Z" fill="white"/>
</svg>
