<svg width="32" height="29" viewBox="0 0 32 29" fill="none" xmlns="http://www.w3.org/2000/svg">
<path d="M31.9292 4.46314C31.8588 4.28651 31.7397 4.13554 31.5868 4.02932C31.4339 3.92309 31.2542 3.86639 31.0703 3.86638H26.1748C25.6488 2.85667 24.9035 1.98847 23.9981 1.33079C23.0928 0.673106 22.0523 0.244076 20.9595 0.0778031C19.8668 -0.0884696 18.7517 0.0125992 17.7031 0.372976C16.6545 0.733353 15.7011 1.3431 14.9189 2.15375C14.244 2.83788 13.7076 3.65547 13.3413 4.55841C12.9749 5.46134 12.786 6.43136 12.7856 7.41135V8.8053C6.39376 7.19916 2.08959 1.70908 2.04496 1.6514C1.93351 1.50657 1.78433 1.39814 1.61523 1.33905C1.44613 1.27996 1.26425 1.27269 1.09129 1.31813C0.918332 1.36356 0.761596 1.45977 0.639784 1.59529C0.517972 1.7308 0.436228 1.89989 0.404306 2.08238C-0.337926 6.32609 -0.422067 12.3952 3.39043 17.209C4.53526 18.6589 5.93886 19.8651 7.524 20.7612C6.18473 22.995 2.56034 24.2085 1.13678 24.5077C0.971754 24.542 0.818779 24.6222 0.694163 24.7398C0.569547 24.8574 0.477965 25.0079 0.429183 25.1754C0.3804 25.3429 0.376247 25.5209 0.417166 25.6907C0.458085 25.8604 0.542542 26.0154 0.66153 26.1391C0.773872 26.2559 3.47396 29 8.75682 29C14.2306 29 18.9163 26.94 22.3076 23.0428C25.2321 19.682 26.9441 15.0919 27.0374 10.3932L31.7277 5.51666C31.8578 5.38145 31.9463 5.2092 31.9822 5.02167C32.018 4.83415 31.9996 4.63978 31.9292 4.46314V4.46314ZM25.4543 9.30507C25.3679 9.39485 25.2994 9.50143 25.2527 9.61872C25.206 9.73601 25.182 9.86172 25.182 9.98867C25.182 14.3542 23.6317 18.6395 20.9285 21.7459C17.8998 25.2267 13.6906 27.0666 8.75682 27.0666C6.42011 27.0666 4.70228 26.4431 3.67261 25.92C3.60711 25.8867 3.54353 25.8535 3.48186 25.8203C5.5832 25.0605 8.71793 23.4782 9.63882 20.6055C9.71489 20.3682 9.6995 20.1094 9.59587 19.8836C9.49224 19.6578 9.30846 19.4826 9.08316 19.3948C9.06084 19.3861 6.814 18.49 4.82593 15.9798C2.45358 12.9847 1.49333 9.09627 1.96129 4.40144C3.98112 6.47448 8.10927 9.99721 13.5626 10.9421C13.6958 10.9652 13.8322 10.9578 13.9623 10.9206C14.0925 10.8833 14.2133 10.8169 14.3163 10.7262C14.4193 10.6355 14.5021 10.5225 14.5589 10.3951C14.6157 10.2678 14.6451 10.1291 14.6451 9.98867V7.41119C14.6582 5.95047 15.2267 4.55448 16.2264 3.52812C17.2261 2.50176 18.5759 1.92843 19.9808 1.93335C20.9944 1.94793 21.9826 2.26561 22.8273 2.84843C23.6719 3.43125 24.3374 4.25458 24.7441 5.22005C24.8165 5.39231 24.9356 5.53888 25.0868 5.64184C25.2381 5.7448 25.4149 5.79967 25.5957 5.79974H28.8256L25.4543 9.30507Z" fill="white"/>
</svg>
