<svg width="24" height="24" viewBox="0 0 24 24" fill="none" xmlns="http://www.w3.org/2000/svg">
<g clip-path="url(#clip0_505_12)">
<path d="M14.8 12.4L16.7 10.5C18.5 11.2 20.6 10.8 22.1 9.40002L22.8 8.70002C24.4 7.10002 24.4 4.60002 22.8 3.00002L22.1 3.70002L19.3 6.50002C18.9 6.90002 18.3 6.90002 17.9 6.50002C17.5 6.10002 17.5 5.50002 17.9 5.10002L20.7 2.30002L21.4 1.60002C19.8 2.44379e-05 17.3 2.44379e-05 15.7 1.60002L15 2.30002C13.6 3.70002 13.2 5.90002 13.9 7.70002L11.3 10.3L1.9 0.900024L0 0.400024L0.5 2.30002L9.9 11.7L0.9 20.7C0.1 21.5 0.1 22.7 0.9 23.5C1.7 24.3 2.9 24.3 3.7 23.5L12 15.2L20.6 23.8C21.4 24.6 22.6 24.6 23.4 23.8C24.2 23 24.2 21.8 23.4 21L14.8 12.4ZM15.8 3.00002L16.5 2.30002C17.4 1.40002 18.8 1.20002 19.9 1.70002L17.2 4.40002C16.4 5.20002 16.4 6.40002 17.2 7.20002C18 8.00002 19.2 8.00002 20 7.20002L22.7 4.50002C23.2 5.70002 23 7.00002 22.1 8.00002L21.4 8.70002C19.8 10.3 17.3 10.3 15.7 8.70002C14.2 7.10002 14.2 4.60002 15.8 3.00002ZM14.4 8.60003C14.6 8.90003 14.8 9.10002 15 9.40002C15.2 9.60002 15.5 9.90002 15.8 10L13.4 12.4L12 11L14.4 8.60003ZM3 22.8C2.6 23.2 2 23.2 1.6 22.8C1.2 22.4 1.2 21.8 1.6 21.4L3 20L4.4 21.4L3 22.8ZM3.7 19.3L10.5 12.5L11.9 13.9L5.1 20.7L3.7 19.3ZM12.8 14.6L14.2 13.2L20.6 19.6L19.2 21L12.8 14.6ZM22.7 23.1C22.3 23.5 21.7 23.5 21.3 23.1L19.9 21.7L21.3 20.3L22.7 21.7C23.1 22.1 23.1 22.7 22.7 23.1Z" fill="#28B1D8"/>
</g>
<defs>
<clipPath id="clip0_505_12">
<rect width="24" height="24" fill="white"/>
</clipPath>
</defs>
</svg>
