<svg width="32" height="32" viewBox="0 0 32 32" fill="none" xmlns="http://www.w3.org/2000/svg">
<path d="M16.0001 30C12.2601 30 8.74507 28.544 6.10107 25.899C1.77907 21.578 0.752066 15.025 3.54707 9.595C3.80007 9.104 4.40207 8.911 4.89407 9.163C5.38607 9.415 5.57907 10.018 5.32607 10.51C2.93007 15.164 3.81007 20.78 7.51507 24.485C9.78107 26.752 12.7941 28 16.0001 28C19.2051 28 22.2191 26.752 24.4851 24.485C26.7511 22.218 28.0001 19.205 28.0001 16C28.0001 12.794 26.7521 9.781 24.4851 7.515C22.2181 5.249 19.2061 4 16.0001 4C12.7941 4 9.78107 5.249 7.51507 7.515C7.12407 7.906 6.49207 7.906 6.10107 7.515C5.71007 7.124 5.71007 6.492 6.10107 6.101C8.74507 3.457 12.2601 2 16.0001 2C19.7401 2 23.2561 3.457 25.8991 6.101C28.5441 8.745 30.0001 12.26 30.0001 16C30.0001 19.739 28.5441 23.255 25.8991 25.899C23.2561 28.544 19.7401 30 16.0001 30Z" fill="#28B1D8"/>
<path d="M16 20C14.932 20 13.927 19.584 13.171 18.828C11.611 17.268 11.611 14.731 13.171 13.172C14.428 11.915 20.443 9.533 21.636 9.068C22.007 8.924 22.426 9.012 22.706 9.293C22.986 9.574 23.075 9.993 22.931 10.363C22.466 11.556 20.084 17.572 18.827 18.828C18.073 19.584 17.068 20 16 20ZM20.188 11.813C17.735 12.841 15.124 14.048 14.586 14.586C13.806 15.366 13.806 16.634 14.586 17.414C15.342 18.17 16.659 18.17 17.415 17.414C17.952 16.875 19.16 14.266 20.188 11.813Z" fill="#28B1D8"/>
</svg>
