<svg width="204" height="155" viewBox="0 0 204 155" fill="none" xmlns="http://www.w3.org/2000/svg">
<path d="M202.036 44.933L202.032 44.927L202.028 44.9211L172.026 4.75094C172.036 4.49297 172.023 4.2344 171.987 3.97796L171.961 3.79477L171.871 3.63293C171.372 2.73046 170.588 2.0072 169.641 1.54882C168.714 1.09962 167.666 0.921529 166.634 1.03171H38.2561H38.221L38.1859 1.03418C37.4626 1.08505 36.7564 1.27805 36.115 1.60329L36.048 1.6373L35.9867 1.68096C35.7118 1.87702 35.459 2.1005 35.2332 2.34815C34.9688 2.52509 34.7235 2.72787 34.502 2.95388L34.4627 2.99398L34.4282 3.03823L2.08746 44.4405L2.08745 44.4404L2.08373 44.4453C1.54898 45.1385 1.21611 45.9558 1.1272 46.8166C0.964312 47.486 0.957865 48.18 1.10786 48.8513C1.09985 49.0313 1.10368 49.2117 1.11935 49.3913L1.1503 49.7461L1.39852 50.0014L101.714 153.198L102.008 153.501H102.431H103.444H103.866H104.373H105.471H106.737H107.244H107.688L107.986 153.172L200.87 50.516L201.1 50.2617L201.108 50.1527C201.167 50.1363 201.227 50.1195 201.288 50.1024C201.512 50.0388 201.75 49.9693 201.935 49.9086C202.025 49.8794 202.123 49.8455 202.208 49.8104C202.245 49.795 202.315 49.765 202.389 49.7217C202.422 49.7025 202.499 49.6556 202.58 49.5792L202.583 49.5768C202.619 49.5436 202.816 49.3602 202.881 49.0462C203.038 48.385 203.04 47.6999 202.887 47.0381C202.783 46.2796 202.49 45.5593 202.036 44.933ZM50.9523 13.9321L48.4883 10.756H92.0382L78.7555 27.9928L78.7554 27.9929L70.2596 39.0145L50.9547 13.9351L50.9523 13.9321ZM57.6473 39.2578L60.1113 42.4339H16.4802L38.2575 14.2478L57.6471 39.2576L57.6473 39.2578ZM93.4279 25.2743L102.167 14.2383L123.957 42.5112H80.1451L93.4198 25.2847L93.4279 25.2743ZM77.401 52.2355H127.876L105.042 132.854L77.401 52.2355ZM66.4199 52.1582L93.0203 129.951L18.0627 52.1582H66.4199ZM116.541 130.184L138.401 52.2355H186.571L116.541 130.184ZM187.638 42.5112H144.56L166.099 14.2632L187.638 42.5112ZM155.973 10.756L134.434 39.0039L112.895 10.756H155.973Z" fill="#28B1D8" stroke="#28B1D8" stroke-width="2"/>
</svg>
