<svg width="64" height="64" viewBox="0 0 64 64" fill="none" xmlns="http://www.w3.org/2000/svg">
<path d="M12.5 29H11.5C10.6716 29 10 29.6716 10 30.5V37.5C10 38.3284 10.6716 39 11.5 39H12.5C13.3284 39 14 38.3284 14 37.5V30.5C14 29.6716 13.3284 29 12.5 29Z" fill="#28B1D8"/>
<path d="M61 24C61 23.2044 60.6839 22.4413 60.1213 21.8787C59.5587 21.3161 58.7956 21 58 21H44V15C44 13.9391 43.5786 12.9217 42.8284 12.1716C42.0783 11.4214 41.0609 11 40 11H24C22.9391 11 21.9217 11.4214 21.1716 12.1716C20.4214 12.9217 20 13.9391 20 15V21H6C5.20435 21 4.44129 21.3161 3.87868 21.8787C3.31607 22.4413 3 23.2044 3 24V32C3.00505 32.686 3.24505 33.3495 3.68 33.88C3.47051 34.0706 3.30214 34.3019 3.18521 34.5598C3.06829 34.8178 3.00526 35.0969 3 35.38V50.62C3 52 4.32 53 6 53H58C59.68 53 61 52 61 50.62V35.38C60.9959 35.0966 60.9334 34.8172 60.8164 34.5591C60.6994 34.301 60.5304 34.0698 60.32 33.88C60.7549 33.3495 60.9949 32.686 61 32V24ZM27 17H37V21H27V17ZM58.44 35H56V37.5C56 38.4283 55.6312 39.3185 54.9749 39.9749C54.3185 40.6312 53.4283 41 52.5 41H51.5C50.5717 41 49.6815 40.6312 49.0251 39.9749C48.3688 39.3185 48 38.4283 48 37.5V35H16V37.5C16 38.4283 15.6313 39.3185 14.9749 39.9749C14.3185 40.6312 13.4283 41 12.5 41H11.5C10.5717 41 9.6815 40.6312 9.02513 39.9749C8.36875 39.3185 8 38.4283 8 37.5V35H5.56C4.7 35 4 34.55 4 34C4 33.45 4.7 33 5.56 33H8V30.5C8 29.5717 8.36875 28.6815 9.02513 28.0251C9.6815 27.3687 10.5717 27 11.5 27H12.5C13.4283 27 14.3185 27.3687 14.9749 28.0251C15.6313 28.6815 16 29.5717 16 30.5V33H48V30.5C48 29.5717 48.3688 28.6815 49.0251 28.0251C49.6815 27.3687 50.5717 27 51.5 27H52.5C53.4283 27 54.3185 27.3687 54.9749 28.0251C55.6312 28.6815 56 29.5717 56 30.5V33H58.44C59.3 33 60 33.45 60 34C60 34.55 59.3 35 58.44 35Z" fill="#28B1D8"/>
<path d="M52.5 29H51.5C50.6716 29 50 29.6716 50 30.5V37.5C50 38.3284 50.6716 39 51.5 39H52.5C53.3284 39 54 38.3284 54 37.5V30.5C54 29.6716 53.3284 29 52.5 29Z" fill="#28B1D8"/>
</svg>
