<svg width="384" height="384" viewBox="0 0 384 384" fill="none" xmlns="http://www.w3.org/2000/svg">
<g filter="url(#filter0_ii_510_8)">
<circle cx="192" cy="192" r="189.5" fill="#1D7A95" stroke="#124452" stroke-width="5"/>
<path d="M64.2823 186.018L55.0227 199.752C52.6864 203.217 53.1328 207.852 56.0876 210.808L59.0337 213.755C60.3107 215.033 60.4917 217.04 59.4638 218.526C57.977 220.674 59.0962 223.646 61.6308 224.28L67.7169 225.802C68.6602 226.038 69.3219 226.885 69.3219 227.857L69.3219 228.54C69.3219 229.333 68.6786 229.977 67.885 229.977C67.4326 229.977 67.0067 230.19 66.7353 230.552L66.4879 230.882C65.9233 231.635 65.884 232.658 66.3891 233.452L68.4781 236.736C69.0351 237.612 69.7595 238.369 70.6097 238.964L73.2403 240.806C74.2175 241.491 75.1156 242.281 75.918 243.164L77.9992 245.455C79.3507 246.942 80.0995 248.879 80.0995 250.888L80.0995 253.417C80.0995 253.94 79.8915 254.442 79.5214 254.813L78.8235 255.511C78.1519 256.183 78.3858 257.322 79.2677 257.675C79.7701 257.876 80.0995 258.363 80.0995 258.904L80.0995 259.313C80.0995 260.379 79.2359 261.242 78.1707 261.242L75.0494 261.242C74.123 261.242 73.2144 261.497 72.423 261.979L62.9717 267.734C61.8247 268.432 60.8043 269.32 59.9541 270.36L57.162 273.773C56.6726 274.372 55.9405 274.719 55.1675 274.719L54.8392 274.719C53.8497 274.719 52.9872 275.392 52.7473 276.352L52.5464 277.156C52.3084 278.109 53.0289 279.031 54.0107 279.031C55.117 279.031 55.8474 280.182 55.3765 281.183L52.6133 287.057C52.2606 287.807 52.0778 288.625 52.0778 289.453L52.0778 294.206C52.0778 297.685 52.9856 301.105 54.7114 304.126L57.6362 309.246C60.9034 314.966 66.7771 318.71 73.3411 319.257L76.0627 319.484C80.0958 319.82 84.136 318.925 87.6495 316.916L91.3682 314.791C92.812 313.965 94.4624 313.531 96.1254 313.531C99.231 313.531 102.17 312.007 103.938 309.454C105.245 307.565 107.194 306.216 109.423 305.659L113.382 304.669C115.606 304.112 117.718 303.178 119.626 301.906L128.302 296.12C130.211 294.847 132.56 294.418 134.796 294.934L135.134 295.012C137.153 295.478 139.276 295.09 141.001 293.94L142.649 292.841C142.973 292.625 143.215 292.307 143.338 291.938C143.843 290.422 145.949 290.321 146.597 291.781L146.794 292.223C146.878 292.411 146.991 292.586 147.13 292.739L150.606 296.563C151.577 297.632 153.195 297.805 154.37 296.965C155.387 296.238 155.812 294.933 155.416 293.747L155.378 293.63C155.137 292.909 155.178 292.123 155.493 291.43L156.339 289.568C157.167 287.747 158.982 286.578 160.983 286.578C162.64 286.578 164.194 287.384 165.15 288.738L174.717 302.296C175.872 303.933 177.75 304.906 179.754 304.906L181.973 304.906C182.948 304.906 183.84 304.355 184.276 303.483C184.514 303.006 184.598 302.467 184.517 301.94L184.307 300.57C183.861 297.675 185.284 294.812 187.861 293.419L196.168 288.927C200.862 286.389 206.376 285.832 211.483 287.38L218.613 289.541C220.333 290.063 221.798 291.205 222.722 292.747L223.079 293.342C223.989 294.858 224.157 296.707 223.536 298.363C223.123 299.465 223.055 300.666 223.34 301.807L223.477 302.352C224.123 304.941 226.079 307.001 228.63 307.782L249.772 314.257C250.345 314.432 250.924 314.004 250.924 313.405C250.924 312.509 252.096 312.173 252.571 312.932L253.249 314.018C253.479 314.386 253.882 314.609 254.316 314.609L257.015 314.609C258.31 314.609 259.571 314.199 260.619 313.437L264.107 310.899C264.627 310.521 264.935 309.916 264.935 309.273C264.935 307.912 266.259 306.945 267.555 307.357L273.754 309.331C275.655 309.935 277.731 309.565 279.305 308.34L280.662 307.284C281.279 306.804 281.64 306.066 281.64 305.284L281.64 304.944C281.64 303.732 282.622 302.75 283.834 302.75C284.492 302.75 285.115 303.045 285.532 303.555L288.16 306.768C288.997 307.791 290.535 307.868 291.469 306.933C291.738 306.664 292.07 306.469 292.436 306.364L293.082 306.18C294.68 305.723 296.401 306.121 297.637 307.233L299.535 308.942C300.504 309.814 301.761 310.297 303.065 310.297L305.156 310.297C305.614 310.297 306.042 310.068 306.296 309.687C306.68 309.111 307.431 308.912 308.05 309.221L309.519 309.956C309.967 310.18 310.462 310.297 310.964 310.297L314.216 310.297C314.75 310.297 315.263 310.085 315.641 309.707C316.254 309.093 317.19 308.941 317.966 309.329L321.32 311.007C321.804 311.249 322.338 311.375 322.88 311.375C324.806 311.375 326.367 309.814 326.367 307.888L326.367 305.219C326.367 302.743 327.851 300.508 330.133 299.547L330.405 299.432C333.81 297.998 335.374 294.048 333.874 290.671L333.761 290.418C332.843 288.351 333 285.966 334.181 284.038L341.53 272.044C342.153 271.027 343.261 270.406 344.454 270.406C346.732 270.406 348.377 268.226 347.752 266.035L347.197 264.093C346.966 263.284 346.532 262.547 345.937 261.952L342.181 258.194C340.737 256.75 338.62 256.21 336.662 256.786L336.484 256.839C333.388 257.75 330.187 255.765 329.627 252.587C329.279 250.615 327.871 248.997 325.967 248.379L310.359 243.315C309.622 243.076 309.123 242.389 309.123 241.615C309.123 240.794 308.565 240.079 307.769 239.88L305.139 239.222C303.68 238.857 302.656 237.547 302.656 236.043C302.656 234.947 303.204 233.924 304.115 233.316L304.692 232.932C305.44 232.433 305.89 231.593 305.89 230.693C305.89 229.354 304.905 228.219 303.58 228.029L301.461 227.727C299.552 227.454 297.96 226.125 297.35 224.295L297.25 223.993C296.617 222.094 294.84 220.812 292.838 220.812C291.539 220.812 290.3 220.27 289.42 219.316L278.995 208.018C278.264 207.227 277.291 206.701 276.229 206.524C273.57 206.08 271.783 203.553 272.252 200.899L272.93 197.051C272.989 196.721 273.018 196.386 273.018 196.05C273.018 194.322 272.243 192.686 270.905 191.591L268.045 189.25C267.441 188.756 267.09 188.016 267.09 187.235C267.09 186.055 267.884 185.023 269.023 184.719L275.174 183.078C279.94 181.807 283.257 177.489 283.257 172.556L283.257 165.358C283.257 163.911 282.805 162.5 281.963 161.322L280.754 159.627C279.167 157.405 279.705 154.314 281.95 152.759C283.693 151.552 284.461 149.359 283.852 147.329L282.996 144.473C282.147 141.643 282.742 138.576 284.587 136.268L285.299 135.378C287.101 133.125 287.961 130.263 287.7 127.39L285.206 99.9527C284.997 97.651 285.902 95.3883 287.642 93.8661C288.65 92.9832 289.393 91.837 289.787 90.5558L290.079 89.6083C290.888 86.9763 290.653 84.1336 289.422 81.6704L288.107 79.0391L287.774 78.3728C287.037 76.8993 285.329 76.1918 283.766 76.7129C283.429 76.8254 283.075 76.8828 282.72 76.8828L282.668 76.8828C281.366 76.8828 280.164 76.1851 279.518 75.0545L279.461 74.9548C278.809 73.8137 277.596 73.1094 276.282 73.1094C274.664 73.1094 273.239 72.0485 272.774 70.4996L272.392 69.2261C272.124 68.3315 271.301 67.7187 270.367 67.7187C268.706 67.7187 267.693 65.8919 268.573 64.4832L268.786 64.1424C269.083 63.6675 269.199 63.1018 269.114 62.5483L268.653 59.5498C268.337 57.4951 267.419 55.5804 266.014 54.0477L264.762 52.6818C263.102 50.8697 261.06 49.4485 258.784 48.5209L256.081 47.4193C250.748 45.2461 244.738 45.477 239.588 48.0529L234.69 50.5025C231.393 52.1518 229.213 55.4216 228.96 59.0997L228.553 64.9914C228.406 67.1342 226.624 68.7969 224.477 68.7969L223.826 68.7969C222.333 68.7969 221.032 69.8129 220.67 71.2612C220.385 72.4026 219.505 73.3011 218.37 73.6108L215.384 74.4255C214.651 74.6253 213.896 74.7266 213.136 74.7266L208.71 74.7266C208.15 74.7266 207.627 74.4468 207.317 73.9811C206.962 73.4479 206.333 73.1644 205.698 73.251L201.136 73.8732C197.38 74.3857 193.703 72.4964 191.932 69.1436L184.334 54.7557C181.54 49.466 176.049 46.1562 170.067 46.1562L168.946 46.1562C166.872 46.1562 164.834 46.6976 163.034 47.7269C162.352 48.1163 161.634 48.4375 160.89 48.6858L156.972 49.9921C151.291 51.8864 147.459 57.2354 147.459 63.2239C147.459 64.0597 147.537 64.8978 147.691 65.7193L149.124 73.3673C149.939 77.7154 146.604 81.7344 142.18 81.7344C140.707 81.7344 139.271 82.1947 138.072 83.0511L136.26 84.3462C131.961 87.4178 130.809 93.3118 133.635 97.7758L136.823 102.81C137.943 104.58 137.446 106.92 135.704 108.082L135.405 108.281C134.519 108.872 133.987 109.866 133.987 110.931C133.987 111.898 134.427 112.813 135.182 113.417L137.449 115.231C140.265 117.485 141.51 121.173 140.635 124.672L139.854 127.8C139.206 130.391 137.497 132.589 135.146 133.855L132.789 135.125C132.174 135.456 131.709 136.01 131.488 136.673C130.76 138.859 127.824 139.227 126.578 137.288L126.342 136.92C125.492 135.599 123.757 135.174 122.393 135.953L114.545 140.44C113.865 140.828 113.293 141.378 112.879 142.042L111.83 143.72C110.257 146.238 106.506 145.964 105.317 143.244L104.936 142.374C104.58 141.558 103.774 141.031 102.883 141.031C102.434 141.031 101.995 140.896 101.623 140.643L93.8128 135.33C90.4954 133.074 86.5761 131.867 82.564 131.867L79.6029 131.867C73.0434 131.867 67.1196 135.789 64.5585 141.828L62.6244 146.389C61.7559 148.437 61.9405 150.78 63.1192 152.666L64.2286 154.442C65.5649 156.58 64.959 159.394 62.861 160.793C60.555 162.331 60.0912 165.529 61.8653 167.658L64.6432 170.993C65.9254 172.532 66.6275 174.472 66.6275 176.475L66.6275 178.344C66.6275 181.078 65.8109 183.75 64.2823 186.018Z" fill="#28B1D8" stroke="#124452" stroke-width="3"/>
<path d="M98.7086 178V144.4H111.813C114.757 144.4 117.269 144.864 119.349 145.792C121.429 146.72 123.029 148.064 124.149 149.824C125.269 151.584 125.829 153.68 125.829 156.112C125.829 158.544 125.269 160.64 124.149 162.4C123.029 164.128 121.429 165.472 119.349 166.432C117.269 167.36 114.757 167.824 111.813 167.824H101.349L103.509 165.568V178H98.7086ZM103.509 166.048L101.349 163.648H111.669C114.741 163.648 117.061 162.992 118.629 161.68C120.229 160.368 121.029 158.512 121.029 156.112C121.029 153.712 120.229 151.856 118.629 150.544C117.061 149.232 114.741 148.576 111.669 148.576H101.349L103.509 146.176V166.048ZM136.873 158.896H154.153V162.976H136.873V158.896ZM137.305 173.824H156.889V178H132.505V144.4H156.217V148.576H137.305V173.824ZM164.427 178V144.4H186.459L186.411 148.576H167.979L169.131 147.376L169.179 178H164.427ZM192.177 178V144.4H196.929V170.32L216.801 144.4H221.217V178H216.513V152.128L196.593 178H192.177ZM246.813 178.384C244.253 178.384 241.869 177.952 239.661 177.088C237.485 176.224 235.597 175.024 233.997 173.488C232.397 171.92 231.149 170.096 230.253 168.016C229.357 165.936 228.909 163.664 228.909 161.2C228.909 158.736 229.357 156.464 230.253 154.384C231.149 152.304 232.397 150.496 233.997 148.96C235.597 147.392 237.485 146.176 239.661 145.312C241.837 144.448 244.221 144.016 246.813 144.016C249.373 144.016 251.725 144.448 253.869 145.312C256.045 146.144 257.933 147.344 259.533 148.912C261.165 150.448 262.413 152.256 263.277 154.336C264.173 156.416 264.621 158.704 264.621 161.2C264.621 163.696 264.173 165.984 263.277 168.064C262.413 170.144 261.165 171.968 259.533 173.536C257.933 175.072 256.045 176.272 253.869 177.136C251.725 177.968 249.373 178.384 246.813 178.384ZM246.813 174.112C248.669 174.112 250.381 173.792 251.949 173.152C253.549 172.512 254.925 171.616 256.077 170.464C257.261 169.28 258.173 167.904 258.813 166.336C259.485 164.768 259.821 163.056 259.821 161.2C259.821 159.344 259.485 157.632 258.813 156.064C258.173 154.496 257.261 153.136 256.077 151.984C254.925 150.8 253.549 149.888 251.949 149.248C250.381 148.608 248.669 148.288 246.813 148.288C244.925 148.288 243.181 148.608 241.581 149.248C240.013 149.888 238.637 150.8 237.453 151.984C236.269 153.136 235.341 154.496 234.669 156.064C234.029 157.632 233.709 159.344 233.709 161.2C233.709 163.056 234.029 164.768 234.669 166.336C235.341 167.904 236.269 169.28 237.453 170.464C238.637 171.616 240.013 172.512 241.581 173.152C243.181 173.792 244.925 174.112 246.813 174.112ZM296.476 144.4H301.276V178H296.476V144.4ZM277.18 178H272.38V144.4H277.18V178ZM296.908 163.024H276.7V158.848H296.908V163.024ZM58.6398 186.4H64.1598L72.9438 198.688L81.7278 186.4H87.3438L75.9678 202.528L88.2558 220H82.5918L72.9438 206.608L63.3438 220H57.8238L70.0638 202.72L58.6398 186.4ZM108.204 220.384C105.644 220.384 103.26 219.952 101.052 219.088C98.8756 218.224 96.9876 217.024 95.3876 215.488C93.7876 213.92 92.5396 212.096 91.6436 210.016C90.7476 207.936 90.2996 205.664 90.2996 203.2C90.2996 200.736 90.7476 198.464 91.6436 196.384C92.5396 194.304 93.7876 192.496 95.3876 190.96C96.9876 189.392 98.8756 188.176 101.052 187.312C103.228 186.448 105.612 186.016 108.204 186.016C110.764 186.016 113.116 186.448 115.26 187.312C117.436 188.144 119.324 189.344 120.924 190.912C122.556 192.448 123.804 194.256 124.668 196.336C125.564 198.416 126.012 200.704 126.012 203.2C126.012 205.696 125.564 207.984 124.668 210.064C123.804 212.144 122.556 213.968 120.924 215.536C119.324 217.072 117.436 218.272 115.26 219.136C113.116 219.968 110.764 220.384 108.204 220.384ZM108.204 216.112C110.06 216.112 111.772 215.792 113.34 215.152C114.94 214.512 116.316 213.616 117.468 212.464C118.652 211.28 119.564 209.904 120.204 208.336C120.876 206.768 121.212 205.056 121.212 203.2C121.212 201.344 120.876 199.632 120.204 198.064C119.564 196.496 118.652 195.136 117.468 193.984C116.316 192.8 114.94 191.888 113.34 191.248C111.772 190.608 110.06 190.288 108.204 190.288C106.316 190.288 104.572 190.608 102.972 191.248C101.404 191.888 100.028 192.8 98.8436 193.984C97.6596 195.136 96.7316 196.496 96.0596 198.064C95.4196 199.632 95.0996 201.344 95.0996 203.2C95.0996 205.056 95.4196 206.768 96.0596 208.336C96.7316 209.904 97.6596 211.28 98.8436 212.464C100.028 213.616 101.404 214.512 102.972 215.152C104.572 215.792 106.316 216.112 108.204 216.112ZM131.25 220.384C130.77 220.384 130.29 220.352 129.81 220.288C129.33 220.224 128.802 220.128 128.226 220L128.562 215.728C129.074 215.856 129.586 215.92 130.098 215.92C131.506 215.92 132.626 215.36 133.458 214.24C134.29 213.12 134.898 211.424 135.282 209.152C135.698 206.88 135.97 204.016 136.098 200.56L136.626 186.4H160.29V220H155.586V189.328L156.738 190.576H139.698L140.754 189.28L140.37 200.416C140.274 203.744 140.05 206.656 139.698 209.152C139.346 211.648 138.818 213.728 138.114 215.392C137.41 217.056 136.498 218.304 135.378 219.136C134.29 219.968 132.914 220.384 131.25 220.384ZM185.875 220.384C183.315 220.384 180.931 219.952 178.723 219.088C176.547 218.224 174.659 217.024 173.059 215.488C171.459 213.92 170.211 212.096 169.315 210.016C168.419 207.936 167.971 205.664 167.971 203.2C167.971 200.736 168.419 198.464 169.315 196.384C170.211 194.304 171.459 192.496 173.059 190.96C174.659 189.392 176.547 188.176 178.723 187.312C180.899 186.448 183.283 186.016 185.875 186.016C188.435 186.016 190.787 186.448 192.931 187.312C195.107 188.144 196.995 189.344 198.595 190.912C200.227 192.448 201.475 194.256 202.339 196.336C203.235 198.416 203.683 200.704 203.683 203.2C203.683 205.696 203.235 207.984 202.339 210.064C201.475 212.144 200.227 213.968 198.595 215.536C196.995 217.072 195.107 218.272 192.931 219.136C190.787 219.968 188.435 220.384 185.875 220.384ZM185.875 216.112C187.731 216.112 189.443 215.792 191.011 215.152C192.611 214.512 193.987 213.616 195.139 212.464C196.323 211.28 197.235 209.904 197.875 208.336C198.547 206.768 198.883 205.056 198.883 203.2C198.883 201.344 198.547 199.632 197.875 198.064C197.235 196.496 196.323 195.136 195.139 193.984C193.987 192.8 192.611 191.888 191.011 191.248C189.443 190.608 187.731 190.288 185.875 190.288C183.987 190.288 182.243 190.608 180.643 191.248C179.075 191.888 177.699 192.8 176.515 193.984C175.331 195.136 174.403 196.496 173.731 198.064C173.091 199.632 172.771 201.344 172.771 203.2C172.771 205.056 173.091 206.768 173.731 208.336C174.403 209.904 175.331 211.28 176.515 212.464C177.699 213.616 179.075 214.512 180.643 215.152C182.243 215.792 183.987 216.112 185.875 216.112ZM232.825 217.744V190.576H218.089L217.849 197.632C217.753 200 217.593 202.272 217.369 204.448C217.177 206.624 216.889 208.592 216.505 210.352C216.121 212.08 215.577 213.504 214.873 214.624C214.201 215.744 213.337 216.432 212.281 216.688L207.097 215.824C208.345 215.92 209.369 215.504 210.169 214.576C211.001 213.616 211.641 212.288 212.089 210.592C212.569 208.864 212.921 206.864 213.145 204.592C213.369 202.288 213.529 199.824 213.625 197.2L213.961 186.4H237.577V217.744H232.825ZM205.897 227.344L205.945 215.824H242.521V227.344H238.057V220H210.409L210.361 227.344H205.897ZM244.428 220L259.644 186.4H264.396L279.66 220H274.62L261.036 189.088H262.956L249.372 220H244.428ZM250.908 211.6L252.204 207.76H271.116L272.508 211.6H250.908ZM281.347 211.744V208.384L298.531 186.4H303.715L286.675 208.384L284.227 207.616H311.059V211.744H281.347ZM300.019 220V211.744L300.163 207.616V200.32H304.675V220H300.019ZM327.51 220.384C324.79 220.384 322.438 219.984 320.454 219.184C318.47 218.384 316.934 217.248 315.846 215.776C314.758 214.272 314.214 212.512 314.214 210.496C314.214 208.512 314.726 206.832 315.75 205.456C316.806 204.048 318.326 202.992 320.31 202.288C322.294 201.552 324.694 201.184 327.51 201.184C330.326 201.184 332.726 201.552 334.71 202.288C336.726 202.992 338.262 204.048 339.318 205.456C340.374 206.864 340.902 208.544 340.902 210.496C340.902 212.512 340.358 214.272 339.27 215.776C338.182 217.248 336.63 218.384 334.614 219.184C332.598 219.984 330.23 220.384 327.51 220.384ZM327.51 216.496C330.198 216.496 332.294 215.952 333.798 214.864C335.334 213.744 336.102 212.24 336.102 210.352C336.102 208.496 335.334 207.04 333.798 205.984C332.294 204.896 330.198 204.352 327.51 204.352C324.854 204.352 322.774 204.896 321.27 205.984C319.766 207.04 319.014 208.496 319.014 210.352C319.014 212.24 319.766 213.744 321.27 214.864C322.774 215.952 324.854 216.496 327.51 216.496ZM327.51 203.776C324.95 203.776 322.774 203.44 320.982 202.768C319.19 202.064 317.814 201.072 316.854 199.792C315.894 198.48 315.414 196.928 315.414 195.136C315.414 193.248 315.91 191.632 316.902 190.288C317.926 188.912 319.35 187.856 321.174 187.12C322.998 186.384 325.11 186.016 327.51 186.016C329.942 186.016 332.07 186.384 333.894 187.12C335.718 187.856 337.142 188.912 338.166 190.288C339.19 191.632 339.702 193.248 339.702 195.136C339.702 196.928 339.222 198.48 338.262 199.792C337.302 201.072 335.91 202.064 334.086 202.768C332.262 203.44 330.07 203.776 327.51 203.776ZM327.51 200.704C329.846 200.704 331.67 200.224 332.982 199.264C334.326 198.304 334.998 196.992 334.998 195.328C334.998 193.632 334.31 192.304 332.934 191.344C331.558 190.384 329.75 189.904 327.51 189.904C325.27 189.904 323.478 190.384 322.134 191.344C320.822 192.304 320.166 193.632 320.166 195.328C320.166 196.992 320.806 198.304 322.086 199.264C323.398 200.224 325.206 200.704 327.51 200.704Z" fill="white"/>
</g>
<defs>
<filter id="filter0_ii_510_8" x="-5" y="-5" width="394" height="394" filterUnits="userSpaceOnUse" color-interpolation-filters="sRGB">
<feFlood flood-opacity="0" result="BackgroundImageFix"/>
<feBlend mode="normal" in="SourceGraphic" in2="BackgroundImageFix" result="shape"/>
<feColorMatrix in="SourceAlpha" type="matrix" values="0 0 0 0 0 0 0 0 0 0 0 0 0 0 0 0 0 0 127 0" result="hardAlpha"/>
<feOffset dx="5" dy="5"/>
<feGaussianBlur stdDeviation="2.5"/>
<feComposite in2="hardAlpha" operator="arithmetic" k2="-1" k3="1"/>
<feColorMatrix type="matrix" values="0 0 0 0 0 0 0 0 0 0 0 0 0 0 0 0 0 0 0.25 0"/>
<feBlend mode="normal" in2="shape" result="effect1_innerShadow_510_8"/>
<feColorMatrix in="SourceAlpha" type="matrix" values="0 0 0 0 0 0 0 0 0 0 0 0 0 0 0 0 0 0 127 0" result="hardAlpha"/>
<feOffset dx="-5" dy="-5"/>
<feGaussianBlur stdDeviation="2.5"/>
<feComposite in2="hardAlpha" operator="arithmetic" k2="-1" k3="1"/>
<feColorMatrix type="matrix" values="0 0 0 0 0 0 0 0 0 0 0 0 0 0 0 0 0 0 0.25 0"/>
<feBlend mode="normal" in2="effect1_innerShadow_510_8" result="effect2_innerShadow_510_8"/>
</filter>
</defs>
</svg>
